<svg xmlns="http://www.w3.org/2000/svg" viewBox="0 0 100 100" width="100" height="100">
  <path d="M50 20c-3.5 0-6.5 2.8-6.5 6.3v2.9c-2.8 0.7-5.4 1.8-7.8 3.2l-2.1-2.1c-2.5-2.5-6.5-2.5-8.9 0-2.5 2.5-2.5 6.5 0 8.9l2.1 2.1c-1.4 2.4-2.5 5-3.2 7.8h-2.9c-3.5 0-6.3 3-6.3 6.5s2.8 6.5 6.3 6.5h2.9c0.7 2.8 1.8 5.4 3.2 7.8l-2.1 2.1c-2.5 2.5-2.5 6.5 0 8.9 2.5 2.5 6.5 2.5 8.9 0l2.1-2.1c2.4 1.4 5 2.5 7.8 3.2v2.9c0 3.5 3 6.3 6.5 6.3s6.5-2.8 6.5-6.3v-2.9c2.8-0.7 5.4-1.8 7.8-3.2l2.1 2.1c2.5 2.5 6.5 2.5 8.9 0s2.5-6.5 0-8.9l-2.1-2.1c1.4-2.4 2.5-5 3.2-7.8h2.9c3.5 0 6.3-3 6.3-6.5s-2.8-6.5-6.3-6.5h-2.9c-0.7-2.8-1.8-5.4-3.2-7.8l2.1-2.1c2.5-2.5 2.5-6.5 0-8.9s-6.5-2.5-8.9 0l-2.1 2.1c-2.4-1.4-5-2.5-7.8-3.2v-2.9c0-3.5-3-6.3-6.5-6.3zm0 20c5.5 0 10 4.5 10 10s-4.5 10-10 10-10-4.5-10-10 4.5-10 10-10z" fill="#e74c3c"/>
</svg>